<svg width="312" height="312" viewBox="0 0 312 312" fill="none" xmlns="http://www.w3.org/2000/svg">
<rect width="312" height="312" rx="10" fill="#F5F5F5"/>
<g filter="url(#filter0_d)">
<path d="M101.684 141.816C101.684 152.129 100.453 161.035 97.9922 168.535C95.5898 176.035 92.3086 182.246 88.1484 187.168C84.0469 192.031 79.2129 195.664 73.6465 198.066C68.1387 200.41 62.3086 201.582 56.1562 201.582C48.7734 201.582 42.3281 200.264 36.8203 197.627C31.3711 194.932 26.8301 191.064 23.1973 186.025C19.623 180.986 16.957 174.863 15.1992 167.656C13.4414 160.391 12.5625 152.217 12.5625 143.135C12.5625 132.939 13.7637 124.092 16.166 116.592C18.5684 109.092 21.8203 102.91 25.9219 98.0469C30.082 93.125 34.916 89.4922 40.4238 87.1484C45.9316 84.7461 51.7617 83.5449 57.9141 83.5449C65.2969 83.5449 71.7129 84.8926 77.1621 87.5879C82.6699 90.2832 87.2402 94.1504 90.873 99.1895C94.5059 104.17 97.2012 110.264 98.959 117.471C100.775 124.678 101.684 132.793 101.684 141.816ZM85.4238 142.959C85.4238 136.221 84.8965 130.068 83.8418 124.502C82.8457 118.877 81.2051 114.043 78.9199 110C76.6348 105.957 73.6758 102.822 70.043 100.596C66.4688 98.3691 62.1328 97.2559 57.0352 97.2559C52.1133 97.2559 47.8652 98.457 44.291 100.859C40.7754 103.203 37.875 106.426 35.5898 110.527C33.3047 114.57 31.6055 119.346 30.4922 124.854C29.3789 130.303 28.8223 136.104 28.8223 142.256C28.8223 149.053 29.3496 155.264 30.4043 160.889C31.459 166.455 33.0996 171.26 35.3262 175.303C37.6113 179.287 40.541 182.393 44.1152 184.619C47.6895 186.846 51.9961 187.959 57.0352 187.959C61.957 187.959 66.2051 186.787 69.7793 184.443C73.3535 182.041 76.2832 178.818 78.5684 174.775C80.9121 170.674 82.6406 165.898 83.7539 160.449C84.8672 155 85.4238 149.17 85.4238 142.959ZM195.111 200H174.721L141.234 128.369L131.566 105.342V163.262V200H116.977V85.127H137.104L169.008 152.979L180.521 179.258V117.734V85.127H195.111V200ZM294.779 120.283C294.779 124.971 293.9 129.629 292.143 134.258C290.385 138.828 287.66 142.93 283.969 146.562C280.277 150.195 275.561 153.154 269.818 155.439C264.076 157.666 257.221 158.779 249.252 158.779H235.014V200H219.369V85.127H251.713C257.396 85.127 262.846 85.7715 268.061 87.0605C273.275 88.291 277.846 90.3125 281.771 93.125C285.756 95.9375 288.92 99.5703 291.264 104.023C293.607 108.477 294.779 113.896 294.779 120.283ZM278.52 120.986C278.52 113.604 276.088 107.949 271.225 104.023C266.42 100.098 259.682 98.1348 251.01 98.1348H235.014V145.42H249.604C258.861 145.42 265.98 143.398 270.961 139.355C276 135.312 278.52 129.189 278.52 120.986Z" fill="#020202"/>
<path d="M97.9922 168.535L97.042 168.223L97.0398 168.23L97.9922 168.535ZM88.1484 187.168L87.3847 186.522L87.384 186.523L88.1484 187.168ZM73.6465 198.066L74.038 198.987L74.0427 198.985L73.6465 198.066ZM36.8203 197.627L36.3769 198.523L36.3885 198.529L36.8203 197.627ZM23.1973 186.025L22.3816 186.604L22.3861 186.61L23.1973 186.025ZM15.1992 167.656L14.2273 167.891L14.2277 167.893L15.1992 167.656ZM25.9219 98.0469L25.1581 97.4013L25.1574 97.4022L25.9219 98.0469ZM40.4238 87.1484L40.8154 88.0686L40.8236 88.065L40.4238 87.1484ZM77.1621 87.5879L76.7188 88.4842L76.7226 88.4861L77.1621 87.5879ZM90.873 99.1895L90.0619 99.7743L90.0651 99.7788L90.873 99.1895ZM98.959 117.471L97.9874 117.708L97.9893 117.715L98.959 117.471ZM83.8418 124.502L82.857 124.676L82.8593 124.688L83.8418 124.502ZM70.043 100.596L69.5142 101.445L69.5204 101.448L70.043 100.596ZM44.291 100.859L44.8457 101.691L44.8489 101.689L44.291 100.859ZM35.5898 110.527L36.4604 111.019L36.4634 111.014L35.5898 110.527ZM30.4922 124.854L31.472 125.054L31.4724 125.052L30.4922 124.854ZM30.4043 160.889L29.4214 161.073L29.4218 161.075L30.4043 160.889ZM35.3262 175.303L34.4502 175.785L34.4544 175.793L34.4587 175.8L35.3262 175.303ZM69.7793 184.443L70.3277 185.28L70.3371 185.273L69.7793 184.443ZM78.5684 174.775L77.7001 174.279L77.6978 174.283L78.5684 174.775ZM100.684 141.816C100.684 152.054 99.4616 160.849 97.042 168.223L98.9423 168.847C101.445 161.221 102.684 152.204 102.684 141.816H100.684ZM97.0398 168.23C94.6688 175.632 91.4438 181.72 87.3847 186.522L88.9122 187.814C93.1734 182.772 96.5109 176.438 98.9445 168.84L97.0398 168.23ZM87.384 186.523C83.3773 191.274 78.6673 194.81 73.2502 197.148L74.0427 198.985C79.7584 196.518 84.7165 192.788 88.9129 187.813L87.384 186.523ZM73.2549 197.146C67.8744 199.436 62.1779 200.582 56.1562 200.582V202.582C62.4393 202.582 68.4029 201.384 74.038 198.987L73.2549 197.146ZM56.1562 200.582C48.8921 200.582 42.5999 199.285 37.2521 196.725L36.3885 198.529C42.0564 201.242 48.6547 202.582 56.1562 202.582V200.582ZM37.2637 196.731C31.9639 194.109 27.5481 190.35 24.0084 185.441L22.3861 186.61C26.1121 191.779 30.7783 195.754 36.377 198.523L37.2637 196.731ZM24.0129 185.447C20.5248 180.529 17.9045 174.528 16.1707 167.419L14.2277 167.893C16.0096 175.199 18.7213 181.443 22.3816 186.604L24.0129 185.447ZM16.1712 167.421C14.4355 160.247 13.5625 152.154 13.5625 143.135H11.5625C11.5625 152.28 12.4473 160.534 14.2273 167.891L16.1712 167.421ZM13.5625 143.135C13.5625 133.014 14.7553 124.274 17.1184 116.897L15.2137 116.287C12.772 123.909 11.5625 132.865 11.5625 143.135H13.5625ZM17.1184 116.897C19.49 109.493 22.6864 103.434 26.6863 98.6916L25.1574 97.4022C20.9542 102.386 17.6467 108.691 15.2137 116.287L17.1184 116.897ZM26.6856 98.6924C30.7528 93.8805 35.4622 90.3465 40.8154 88.0686L40.0323 86.2283C34.3698 88.6379 29.4113 92.3695 25.1581 97.4013L26.6856 98.6924ZM40.8236 88.065C46.2023 85.719 51.8959 84.5449 57.9141 84.5449V82.5449C51.6275 82.5449 45.661 83.7732 40.024 86.2318L40.8236 88.065ZM57.9141 84.5449C65.1756 84.5449 71.4338 85.8702 76.7188 88.4842L77.6055 86.6915C71.992 83.915 65.4182 82.5449 57.9141 82.5449V84.5449ZM76.7226 88.4861C82.0806 91.1081 86.524 94.8668 90.0619 99.7743L91.6842 98.6047C87.9565 93.434 83.2592 89.4583 77.6017 86.6897L76.7226 88.4861ZM90.0651 99.7788C93.6069 104.634 96.2545 110.602 97.9875 117.708L99.9305 117.234C98.1479 109.925 95.4048 103.705 91.681 98.6002L90.0651 99.7788ZM97.9893 117.715C99.7818 124.827 100.684 132.858 100.684 141.816H102.684C102.684 132.727 101.769 124.528 99.9287 117.226L97.9893 117.715ZM86.4238 142.959C86.4238 136.17 85.8926 129.954 84.8243 124.316L82.8593 124.688C83.9004 130.183 84.4238 136.272 84.4238 142.959H86.4238ZM84.8265 124.328C83.815 118.616 82.1426 113.669 79.7905 109.508L78.0494 110.492C80.2676 114.417 81.8764 119.138 82.8571 124.676L84.8265 124.328ZM79.7905 109.508C77.4295 105.331 74.3559 102.066 70.5655 99.7431L69.5204 101.448C72.9957 103.578 75.84 106.583 78.0494 110.492L79.7905 109.508ZM70.5717 99.7469C66.8083 97.4025 62.2802 96.2559 57.0352 96.2559V98.2559C61.9855 98.2559 66.1292 99.3358 69.5142 101.444L70.5717 99.7469ZM57.0352 96.2559C51.9438 96.2559 47.495 97.501 43.7332 100.029L44.8489 101.689C48.2354 99.4131 52.2827 98.2559 57.0352 98.2559V96.2559ZM43.7363 100.027C40.0743 102.469 37.07 105.816 34.7163 110.041L36.4634 111.014C38.68 107.036 41.4765 103.938 44.8457 101.691L43.7363 100.027ZM34.7193 110.035C32.3728 114.187 30.6419 119.065 29.512 124.655L31.4724 125.052C32.569 119.626 34.2366 114.954 36.4604 111.019L34.7193 110.035ZM29.5124 124.653C28.3844 130.175 27.8223 136.043 27.8223 142.256H29.8223C29.8223 136.164 30.3735 130.431 31.4719 125.054L29.5124 124.653ZM27.8223 142.256C27.8223 149.103 28.3535 155.377 29.4214 161.073L31.3872 160.704C30.3458 155.15 29.8223 149.002 29.8223 142.256H27.8223ZM29.4218 161.075C30.4918 166.722 32.1627 171.631 34.4502 175.785L36.2021 174.82C34.0366 170.888 32.4261 166.188 31.3868 160.703L29.4218 161.075ZM34.4587 175.8C36.8184 179.915 39.8596 183.146 43.5865 185.468L44.644 183.77C41.2224 181.639 38.4043 178.66 36.1936 174.805L34.4587 175.8ZM43.5865 185.468C47.3481 187.811 51.8463 188.959 57.0352 188.959V186.959C52.1459 186.959 48.0308 185.88 44.644 183.77L43.5865 185.468ZM57.0352 188.959C62.1216 188.959 66.5669 187.746 70.3277 185.28L69.2309 183.607C65.8433 185.829 61.7925 186.959 57.0352 186.959V188.959ZM70.3371 185.273C74.0504 182.778 77.0834 179.435 79.4389 175.267L77.6978 174.283C75.4831 178.202 72.6566 181.305 69.2215 183.613L70.3371 185.273ZM79.4366 175.272C81.8414 171.063 83.6028 166.185 84.7337 160.649L82.7741 160.249C81.6784 165.612 79.9828 170.284 77.7001 174.279L79.4366 175.272ZM84.7337 160.649C85.8619 155.127 86.4238 149.229 86.4238 142.959H84.4238C84.4238 149.11 83.8725 154.873 82.7741 160.249L84.7337 160.649ZM195.111 200V201H196.111V200H195.111ZM174.721 200L173.815 200.423L174.084 201H174.721V200ZM141.234 128.369L140.312 128.756L140.32 128.775L140.328 128.793L141.234 128.369ZM131.566 105.342L132.488 104.955L130.566 105.342H131.566ZM131.566 200V201H132.566V200H131.566ZM116.977 200H115.977V201H116.977V200ZM116.977 85.127V84.127H115.977V85.127H116.977ZM137.104 85.127L138.008 84.7014L137.738 84.127H137.104V85.127ZM169.008 152.979L169.924 152.577L169.918 152.565L169.913 152.553L169.008 152.979ZM180.521 179.258L179.606 179.659L181.521 179.258H180.521ZM180.521 85.127V84.127H179.521V85.127H180.521ZM195.111 85.127H196.111V84.127H195.111V85.127ZM195.111 199H174.721V201H195.111V199ZM175.627 199.577L142.14 127.946L140.328 128.793L173.815 200.423L175.627 199.577ZM142.156 127.982L132.488 104.955L130.644 105.729L140.312 128.756L142.156 127.982ZM130.566 105.342V163.262H132.566V105.342H130.566ZM130.566 163.262V200H132.566V163.262H130.566ZM131.566 199H116.977V201H131.566V199ZM117.977 200V85.127H115.977V200H117.977ZM116.977 86.127H137.104V84.127H116.977V86.127ZM136.199 85.5525L168.103 153.404L169.913 152.553L138.008 84.7014L136.199 85.5525ZM168.092 153.38L179.606 179.659L181.437 178.857L169.924 152.577L168.092 153.38ZM181.521 179.258V117.734H179.521V179.258H181.521ZM181.521 117.734V85.127H179.521V117.734H181.521ZM180.521 86.127H195.111V84.127H180.521V86.127ZM194.111 85.127V200H196.111V85.127H194.111ZM292.143 134.258L293.076 134.617L293.077 134.613L292.143 134.258ZM269.818 155.439L270.18 156.372L270.188 156.369L269.818 155.439ZM235.014 158.779V157.779H234.014V158.779H235.014ZM235.014 200V201H236.014V200H235.014ZM219.369 200H218.369V201H219.369V200ZM219.369 85.127V84.127H218.369V85.127H219.369ZM268.061 87.0605L267.821 88.0314L267.831 88.0338L268.061 87.0605ZM281.771 93.125L281.189 93.9379L281.195 93.942L281.771 93.125ZM271.225 104.023L270.592 104.798L270.596 104.802L271.225 104.023ZM235.014 98.1348V97.1348H234.014V98.1348H235.014ZM235.014 145.42H234.014V146.42H235.014V145.42ZM270.961 139.355L270.335 138.575L270.331 138.579L270.961 139.355ZM293.779 120.283C293.779 124.843 292.925 129.381 291.208 133.903L293.077 134.613C294.876 129.877 295.779 125.099 295.779 120.283H293.779ZM291.209 133.899C289.506 138.328 286.863 142.311 283.267 145.85L284.67 147.275C288.457 143.548 291.264 139.328 293.076 134.617L291.209 133.899ZM283.267 145.85C279.687 149.373 275.09 152.265 269.449 154.51L270.188 156.369C276.031 154.043 280.867 151.018 284.67 147.275L283.267 145.85ZM269.457 154.507C263.858 156.678 257.132 157.779 249.252 157.779V159.779C257.31 159.779 264.294 158.654 270.18 156.372L269.457 154.507ZM249.252 157.779H235.014V159.779H249.252V157.779ZM234.014 158.779V200H236.014V158.779H234.014ZM235.014 199H219.369V201H235.014V199ZM220.369 200V85.127H218.369V200H220.369ZM219.369 86.127H251.713V84.127H219.369V86.127ZM251.713 86.127C257.32 86.127 262.689 86.7628 267.821 88.0313L268.301 86.0898C263.003 84.7802 257.473 84.127 251.713 84.127V86.127ZM267.831 88.0338C272.933 89.2376 277.38 91.2093 281.189 93.9379L282.354 92.3121C278.311 89.4157 273.618 87.3444 268.29 86.0873L267.831 88.0338ZM281.195 93.942C285.046 96.6604 288.106 100.171 290.379 104.489L292.149 103.558C289.734 98.9694 286.466 95.2146 282.348 92.308L281.195 93.942ZM290.379 104.489C292.629 108.765 293.779 114.016 293.779 120.283H295.779C295.779 113.777 294.586 108.188 292.149 103.558L290.379 104.489ZM279.52 120.986C279.52 113.362 276.995 107.396 271.853 103.245L270.596 104.802C275.181 108.502 277.52 113.845 277.52 120.986H279.52ZM271.857 103.249C266.815 99.1289 259.822 97.1348 251.01 97.1348V99.1348C259.542 99.1348 266.025 101.066 270.592 104.798L271.857 103.249ZM251.01 97.1348H235.014V99.1348H251.01V97.1348ZM234.014 98.1348V145.42H236.014V98.1348H234.014ZM235.014 146.42H249.604V144.42H235.014V146.42ZM249.604 146.42C258.992 146.42 266.368 144.372 271.591 140.132L270.331 138.579C265.593 142.425 258.731 144.42 249.604 144.42V146.42ZM271.587 140.135C276.924 135.853 279.52 129.404 279.52 120.986H277.52C277.52 128.975 275.076 134.772 270.335 138.575L271.587 140.135Z" fill="black"/>
</g>
<defs>
<filter id="filter0_d" x="7.5625" y="82.5449" width="292.217" height="128.037" filterUnits="userSpaceOnUse" color-interpolation-filters="sRGB">
<feFlood flood-opacity="0" result="BackgroundImageFix"/>
<feColorMatrix in="SourceAlpha" type="matrix" values="0 0 0 0 0 0 0 0 0 0 0 0 0 0 0 0 0 0 127 0"/>
<feOffset dy="4"/>
<feGaussianBlur stdDeviation="2"/>
<feColorMatrix type="matrix" values="0 0 0 0 0 0 0 0 0 0 0 0 0 0 0 0 0 0 0.25 0"/>
<feBlend mode="normal" in2="BackgroundImageFix" result="effect1_dropShadow"/>
<feBlend mode="normal" in="SourceGraphic" in2="effect1_dropShadow" result="shape"/>
</filter>
</defs>
</svg>
